<svg xmlns="http://www.w3.org/2000/svg" width="1440" height="960" viewBox="0 0 1440 960" role="img" aria-label="Task management workspace background">
  <rect width="1440" height="960" fill="#101828"/>
  <g opacity="0.72">
    <rect x="110" y="120" width="360" height="220" rx="8" fill="#ffffff"/>
    <rect x="150" y="165" width="210" height="16" rx="4" fill="#0f766e"/>
    <rect x="150" y="210" width="280" height="12" rx="4" fill="#cbd5e1"/>
    <rect x="150" y="245" width="240" height="12" rx="4" fill="#cbd5e1"/>
    <rect x="150" y="280" width="140" height="12" rx="4" fill="#f59e0b"/>
    <rect x="540" y="210" width="310" height="180" rx="8" fill="#ffffff"/>
    <rect x="580" y="255" width="170" height="14" rx="4" fill="#0f766e"/>
    <rect x="580" y="295" width="230" height="12" rx="4" fill="#cbd5e1"/>
    <rect x="580" y="330" width="130" height="12" rx="4" fill="#ef4444"/>
    <rect x="930" y="135" width="330" height="240" rx="8" fill="#ffffff"/>
    <rect x="970" y="180" width="190" height="16" rx="4" fill="#0f766e"/>
    <rect x="970" y="225" width="250" height="12" rx="4" fill="#cbd5e1"/>
    <rect x="970" y="260" width="230" height="12" rx="4" fill="#cbd5e1"/>
    <rect x="970" y="295" width="150" height="12" rx="4" fill="#22c55e"/>
    <rect x="250" y="475" width="360" height="250" rx="8" fill="#ffffff"/>
    <rect x="290" y="520" width="220" height="16" rx="4" fill="#0f766e"/>
    <rect x="290" y="565" width="270" height="12" rx="4" fill="#cbd5e1"/>
    <rect x="290" y="600" width="220" height="12" rx="4" fill="#cbd5e1"/>
    <rect x="290" y="635" width="120" height="12" rx="4" fill="#f59e0b"/>
    <rect x="725" y="500" width="390" height="230" rx="8" fill="#ffffff"/>
    <rect x="765" y="545" width="235" height="16" rx="4" fill="#0f766e"/>
    <rect x="765" y="590" width="295" height="12" rx="4" fill="#cbd5e1"/>
    <rect x="765" y="625" width="245" height="12" rx="4" fill="#cbd5e1"/>
    <rect x="765" y="660" width="155" height="12" rx="4" fill="#22c55e"/>
  </g>
</svg>
